<svg width="1200" height="800" viewBox="0 0 1200 800" fill="none" xmlns="http://www.w3.org/2000/svg">
<path d="M845 400C845 448.456 830.631 495.825 803.71 536.115C776.789 576.405 738.525 607.807 693.757 626.35C648.989 644.894 599.728 649.746 552.203 640.292C504.678 630.839 461.023 607.505 426.759 573.241C392.495 538.977 369.161 495.322 359.708 447.797C350.254 400.272 355.106 351.01 373.65 306.243C392.193 261.475 423.595 223.211 463.885 196.29C504.175 169.369 551.544 155 600 155C632.176 154.991 664.039 161.322 693.768 173.632C723.496 185.941 750.509 203.987 773.261 226.739C796.013 249.491 814.059 276.503 826.368 306.232C838.678 335.961 845.009 367.824 845 400Z" fill="#D20A11"/>
<path d="M493.123 281.505V365.553C498.513 358.468 505.456 352.714 513.419 348.732C521.381 344.751 530.15 342.649 539.052 342.588C547.571 342.456 556.012 344.236 563.752 347.795C570.398 350.662 576.142 355.276 580.375 361.147C584.118 366.53 586.73 372.616 588.052 379.038C589.688 389.076 590.381 399.245 590.122 409.412V499.268H550.067V418.291C550.621 408.047 549.881 397.775 547.864 387.716C546.415 383.492 543.595 379.873 539.853 377.436C535.571 374.721 530.566 373.371 525.5 373.564C519.272 373.477 513.152 375.193 507.876 378.504C502.583 382.032 498.651 387.26 496.728 393.324C493.896 402.777 492.678 412.639 493.123 422.497V499.268H453.402V281.505H493.457H493.123Z" fill="white"/>
<path d="M649.665 281.505V365.553C655.055 358.468 661.998 352.714 669.96 348.732C677.923 344.751 686.692 342.649 695.594 342.588C704.134 342.46 712.595 344.239 720.361 347.795C726.982 350.672 732.702 355.286 736.917 361.147C740.66 366.53 743.271 372.616 744.594 379.038C746.23 389.076 746.923 399.245 746.663 409.412V499.268H706.943V418.291C707.487 408.045 706.725 397.77 704.673 387.716C703.224 383.492 700.404 379.873 696.662 377.436C692.382 374.718 687.376 373.367 682.309 373.564C676.081 373.477 669.961 375.193 664.685 378.504C659.318 382.015 655.295 387.238 653.27 393.324C650.486 402.787 649.268 412.641 649.665 422.497V499.268H609.61V281.505H649.665V281.505Z" fill="white"/>
</svg>
